<svg id="Group_6" data-name="Group 6" xmlns="http://www.w3.org/2000/svg" width="311" height="95" viewBox="0 0 116.913 54.575">
  <path id="Path_7512" data-name="Path 7512" d="M36.449,10.1V26h-6.2V11.068c0-3.875-1.116-5.428-4.119-5.428-2.714,0-4.8,2.906-4.8,7.462V26h-6.2V11.652c0-3.875-.533-6.012-3.683-6.012S6.2,9.227,6.2,14.174V26H0V.4H6.2V1.861a6.573,6.573,0,0,1-.821,3.054c-.192.436-.34.924.148,1.065s.68-.289.776-.533C7.616,2.105,9.99.02,13.384.02a6.009,6.009,0,0,1,6.153,5.043.656.656,0,0,0,.725.488.667.667,0,0,0,.68-.436C22.4,1.868,24.965.026,28.019.026c4.459,0,8.437,2.425,8.437,10.08Z" transform="translate(0 -0.007)" fill="#422982"/>
  <path id="Path_7513" data-name="Path 7513" d="M85.284,14.526H66.947c.43,3.818,2.913,6.114,6.737,6.114A4.942,4.942,0,0,0,78.8,16.816h6.211c-1.1,5.2-4.632,9.169-11.369,9.169-8.168,0-12.659-5.492-12.659-12.992C60.98,5.114,65.85,0,73.543,0c5.826,0,11.9,3.484,11.9,12.659a12.551,12.551,0,0,1-.141,1.861Zm-5.967-4.2c-.237-3.054-2.053-5.351-5.588-5.351-4.158,0-5.922,2.342-6.544,5.351Z" transform="translate(-21.855 0)" fill="#422982"/>
  <path id="Path_7514" data-name="Path 7514" d="M109.162,17.112c.045,1.861,1.148,4.106,5.588,4.106,3.914,0,5.2-1.335,5.2-3.009,0-1.861-2.483-2.149-7.308-2.72-7.738-.956-8.739-4.966-8.739-7.783C103.907,3.6,107.539.02,114.7.02c6.641,0,10.266,3.535,10.606,8.116h-6.018c-.141-1.578-1.193-3.343-4.729-3.343s-4.536,1.148-4.536,2.579c0,1.193.526,2.194,5.447,2.675,6.159.622,10.606,2.624,10.606,7.686S122.013,26,114.564,26s-11.177-3.484-11.414-8.886h6.012Z" transform="translate(-36.969 -0.007)" fill="#422982"/>
  <path id="Path_7515" data-name="Path 7515" d="M168.135,13c0,7.167-4.729,12.992-12.607,12.992S142.92,20.169,142.92,13,147.649.01,155.527.01,168.135,5.836,168.135,13Zm-6.114,0c0-4.106-2.342-7.449-6.493-7.449S149.034,8.9,149.034,13s2.342,7.449,6.493,7.449S162.02,17.109,162.02,13Z" transform="translate(-51.222 -0.004)" fill="#422982"/>
  <path id="Path_7516" data-name="Path 7516" d="M159.067,76.96h-5.2v5.2h5.2Z" transform="translate(-55.147 -27.582)" fill="#422982"/>
  <path id="Path_7517" data-name="Path 7517" d="M24.041,55.409V70.531h-6.2V57.539c0-5.768-1.5-7.366-4.748-7.366C9.5,50.173,6.2,54.2,6.2,60.112v10.42H0V44.938H6.2v1.6a7.262,7.262,0,0,1-.776,3.49c-.192.436-.488,1.116.148,1.258.385.1.533-.192.725-.584,1.161-2.566,4.074-6.159,8.533-6.159,5.524,0,9.207,3.587,9.207,10.856Z" transform="translate(0 -15.963)" fill="#422982"/>
  <path id="Path_7518" data-name="Path 7518" d="M132.137,49.943c1.553-3.542,2.958-5.383,9.207-5.383v6.3c-7.224-.488-9.31,2.085-9.31,8.578v11.1h-6.2V44.945h6.2V46.35a6.5,6.5,0,0,1-.725,2.958c-.193.436-.34,1.02.244,1.116.289.051.533-.34.584-.488Z" transform="translate(-45.097 -15.97)" fill="#422982"/>
  <path id="Path_7519" data-name="Path 7519" d="M65.824,59.076H47.487c.43,3.818,2.913,6.114,6.737,6.114a4.942,4.942,0,0,0,5.114-3.824h6.211c-1.1,5.2-4.632,9.169-11.369,9.169-8.168,0-12.659-5.492-12.659-12.992,0-7.879,4.87-12.992,12.563-12.992,5.826,0,11.9,3.484,11.9,12.659a12.55,12.55,0,0,1-.141,1.861Zm-5.967-4.2c-.237-3.054-2.053-5.351-5.588-5.351-4.158,0-5.922,2.342-6.544,5.351Z" transform="translate(-14.881 -15.967)" fill="#422982"/>
  <path id="Path_7520" data-name="Path 7520" d="M107.994,59.076H89.657c.43,3.818,2.913,6.114,6.737,6.114a4.942,4.942,0,0,0,5.114-3.824h6.211c-1.1,5.2-4.632,9.169-11.369,9.169-8.168,0-12.659-5.492-12.659-12.992,0-7.879,4.87-12.992,12.563-12.992,5.826,0,11.9,3.484,11.9,12.659a12.551,12.551,0,0,1-.141,1.861Zm-5.967-4.2c-.237-3.054-2.053-5.351-5.588-5.351-4.158,0-5.922,2.342-6.544,5.351Z" transform="translate(-29.994 -15.967)" fill="#422982"/>
</svg>
