<svg xmlns="http://www.w3.org/2000/svg" xmlns:xlink="http://www.w3.org/1999/xlink" width="311" height="95" viewBox="0 0 311 95">
    <defs>
        <linearGradient id="linear-gradient" x1="0.5" x2="0.5" y2="1" gradientUnits="objectBoundingBox">
            <stop offset="0" stop-color="#fcbf5a"/>
            <stop offset="0.697" stop-color="#ff9800"/>
            <stop offset="1" stop-color="#ff8200"/>
        </linearGradient>
    </defs>
    <g id="Group_2446" data-name="Group 2446" transform="translate(-136 -417)">
        <g id="Group_2438" data-name="Group 2438" transform="translate(31.984 85)">
            <rect id="Rectangle_1501" data-name="Rectangle 1501" width="100" height="95" rx="18" transform="translate(104.016 332)" fill="#fff"/>
            <g id="Group_2437" data-name="Group 2437" transform="translate(114.016 343)">
                <g id="Group_2428" data-name="Group 2428" transform="translate(0 22.816)">
                    <g id="Group_2439" data-name="Group 2439" transform="translate(18.274)">
                        <ellipse id="Ellipse_55" data-name="Ellipse 55" cx="11.106" cy="11.106" rx="11.106" ry="11.106" transform="translate(19.504 4.334)" fill="#293335"/>
                        <ellipse id="Ellipse_54" data-name="Ellipse 54" cx="15.17" cy="15.169" rx="15.17" ry="15.169" fill="#ff9800"/>
                    </g>
                    <path id="Path_3356" data-name="Path 3356" d="M0,0H30.817" transform="translate(48.512 15.654)" fill="#ff9800" stroke="#ff9800" stroke-width="2.2"/>
                    <circle id="Ellipse_59" data-name="Ellipse 59" cx="15.17" cy="15.17" r="15.17" transform="translate(18.161 -0.521)" fill="url(#linear-gradient)"/>
                    <path id="Path_3355" data-name="Path 3355" d="M0,0H48.512" transform="translate(0 15.654)" fill="#293335" stroke="#293335" stroke-width="2.2"/>
                </g>
                <g id="Group_2427" data-name="Group 2427" transform="translate(2.849 0)">
                    <g id="Group_2395" data-name="Group 2395" transform="translate(0)">
                        <g id="Group_2394" data-name="Group 2394">
                            <g id="Group_2393" data-name="Group 2393">
                                <path id="Path_3302" data-name="Path 3302" d="M85.1,279.249a1.486,1.486,0,0,0,1.491-1.483V256.7h21.062a1.487,1.487,0,0,0,0-2.974H85.1a1.489,1.489,0,0,0-1.483,1.483v22.553A1.484,1.484,0,0,0,85.1,279.249Z" transform="translate(-83.615 -253.729)" fill="#ff9800"/>
                                <path id="Path_3303" data-name="Path 3303" d="M84.805,283.276h18.1a1.193,1.193,0,0,0,0-2.387H86v-16.9a1.193,1.193,0,0,0-2.387,0v18.1A1.2,1.2,0,0,0,84.805,283.276Z" transform="translate(-83.615 -209.358)" fill="#ff9800"/>
                                <path id="Path_3304" data-name="Path 3304" d="M111.966,283.276a1.2,1.2,0,0,0,1.2-1.19v-18.1a1.193,1.193,0,0,0-2.387,0v16.9h-16.9a1.193,1.193,0,0,0,0,2.387Z" transform="translate(-39.243 -209.358)" fill="#ff9800"/>
                                <path id="Path_3305" data-name="Path 3305" d="M93.874,256.116h16.9v16.9a1.193,1.193,0,0,0,2.387,0v-18.1a1.2,1.2,0,0,0-1.2-1.19H93.874a1.193,1.193,0,0,0,0,2.387Z" transform="translate(-39.243 -253.729)" fill="#ff9800"/>
                            </g>
                        </g>
                    </g>
                </g>
            </g>
        </g>
        <text id="ubiID" transform="translate(263 491)" fill="#ff9800" font-size="75" font-family="Sansation-Regular, Sansation"><tspan x="0" y="0" fill="#000">ubi</tspan><tspan y="0" fill="#ff9800">ID</tspan></text>
    </g>
</svg>
